<svg width="29" height="28" viewBox="0 0 29 28" fill="none" xmlns="http://www.w3.org/2000/svg">
<path d="M19.1506 2.44019H9.43325C5.21235 2.44019 2.69604 4.95649 2.69604 9.17739V18.8831C2.69604 23.1156 5.21235 25.6319 9.43325 25.6319H19.139C23.3599 25.6319 25.8762 23.1156 25.8762 18.8947V9.17739C25.8878 4.95649 23.3715 2.44019 19.1506 2.44019ZM19.8348 11.369L13.2599 17.9439C13.0975 18.1062 12.8772 18.199 12.6453 18.199C12.4134 18.199 12.1931 18.1062 12.0307 17.9439L8.74909 14.6622C8.41281 14.326 8.41281 13.7694 8.74909 13.4331C9.08538 13.0968 9.64198 13.0968 9.97826 13.4331L12.6453 16.1001L18.6056 10.1399C18.9419 9.80357 19.4985 9.80357 19.8348 10.1399C20.171 10.4761 20.171 11.0211 19.8348 11.369Z" fill="#BFFFFA"/>
</svg>
