<svg width="55" height="68" viewBox="0 0 55 68" fill="none" xmlns="http://www.w3.org/2000/svg">
<g clip-path="url(#clip0_32_154)">
<path d="M27.5464 14.5622C27.5464 13.9568 27.1457 13.4663 26.6615 13.4663C26.1738 13.4663 25.7773 13.955 25.7773 14.5622C25.7773 14.7612 25.818 14.9481 25.8217 15.1441C26.3932 15.0789 26.9482 15.0121 27.5755 14.9548C27.5794 14.8231 27.5464 14.7015 27.5464 14.5622Z" fill="black"/>
<path d="M48.8028 14.5622C48.8028 13.9568 48.4056 13.4663 47.9174 13.4663C47.4302 13.4663 47.033 13.955 47.033 14.5622C47.033 14.6963 47.0024 14.8204 47.0024 14.9548C47.621 15.0121 48.1802 15.0789 48.7473 15.1441C48.7555 14.9527 48.8028 14.7612 48.8028 14.5622Z" fill="black"/>
<path d="M37.2929 26.6093C42.5511 26.6093 46.8306 21.4162 47.0044 14.9571C44.2112 14.708 40.8847 14.5645 37.2929 14.5645C33.6993 14.5645 30.3745 14.7105 27.5793 14.9571C27.7514 21.4165 32.0326 26.6093 37.2929 26.6093Z" fill="#12B368"/>
<path d="M8.48297 47.6842C7.43215 46.7776 6.7667 45.4693 6.7667 43.9729C6.7667 42.4825 7.43215 41.173 8.48297 40.2667C7.43215 39.3553 6.7667 38.0518 6.7667 36.5554C6.7667 33.7506 9.06583 31.5537 11.9991 31.5537H16.4886C15.0776 27.8613 13.2602 27.9549 13.2602 23.9866C13.2602 22.6874 13.2913 21.5818 13.2829 20.6438H13.7279H17.9519C17.9519 18.5499 16.0569 16.8557 13.7279 16.8557L9.805 15.8296L8.67454 16.8557H1.51976V17.8579H0.15459V19.6415H1.51952V20.6438H6.67572L2.01066 28.2658H3.64408L7.9726 21.1989C7.59069 22.7258 7.3932 24.7173 7.41687 27.2538C7.46125 32.2335 0 36.2658 0 45.0477C0 53.6808 3.45522 54.4517 7.9122 54.5173C7.20581 53.6671 6.7667 52.5959 6.7667 51.3952C6.76867 49.9 7.43215 48.5953 8.48297 47.6842Z" fill="#12B368"/>
<path d="M48.7515 15.1494C48.4985 22.7233 43.4762 28.8019 37.2892 28.8019C31.1009 28.8019 26.0815 22.7233 25.8239 15.1494C22.0318 15.5899 19.5784 16.2337 19.5784 16.9604L21.4147 31.5585H30.2426C33.1759 31.5585 35.4752 33.7551 35.4752 36.5556C35.4752 38.052 34.8063 39.3628 33.755 40.2694C34.8063 41.1759 35.4752 42.4855 35.4752 43.9807C35.4752 45.4722 34.8063 46.7806 33.755 47.6868C34.8063 48.6004 35.4752 49.9091 35.4752 51.4006C35.4752 52.5708 35.0514 53.6298 34.3717 54.4767C35.312 54.5132 36.2844 54.534 37.2894 54.534C44.6237 54.534 50.5738 53.4591 50.5738 52.1407L55.0002 16.9632C55.0019 16.2334 52.5435 15.5872 48.7515 15.1494Z" fill="#12B368"/>
<path d="M30.2442 33.4194H12.0003C9.94653 33.4194 8.27588 34.8241 8.27588 36.5552C8.27588 38.2852 9.94653 39.6923 12.0003 39.6923H30.2442C32.2995 39.6923 33.9681 38.2852 33.9681 36.5552C33.9681 34.8241 32.2995 33.4194 30.2442 33.4194Z" fill="#171AD4"/>
<path d="M12.0003 40.8413C9.94653 40.8413 8.27588 42.2441 8.27588 43.9722C8.27588 45.7067 9.94653 47.1093 12.0003 47.1093H30.2442C32.2995 47.1093 33.9681 45.7067 33.9681 43.9722C33.9681 42.2438 32.3034 40.8413 30.2442 40.8413H12.0003Z" fill="#171AD4"/>
<path d="M30.2442 48.2593H12.0003C9.94653 48.2593 8.27588 49.6618 8.27588 51.3951C8.27588 53.1271 9.94653 54.5297 12.0003 54.5297H30.2442C32.2995 54.5297 33.9681 53.1268 33.9681 51.3951C33.9681 49.6618 32.2995 48.2593 30.2442 48.2593Z" fill="#171AD4"/>
</g>
<defs>
<clipPath id="clip0_32_154">
<rect width="55" height="68" fill="white"/>
</clipPath>
</defs>
</svg>
