<svg width="124" height="110" viewBox="0 0 124 110" fill="none" xmlns="http://www.w3.org/2000/svg">
<g clip-path="url(#clip0_32_133)">
<path d="M47.5421 18.1025C53.1771 18.1025 57.7453 14.0501 57.7453 9.05123C57.7453 4.05237 53.1771 0 47.5421 0C41.907 0 37.3389 4.05237 37.3389 9.05123C37.3389 14.0501 41.907 18.1025 47.5421 18.1025Z" fill="white"/>
<path d="M104.437 104.345C102.38 102.271 98.0839 102.538 95.1639 103.026C94.6606 103.11 94.1412 102.997 93.7391 102.715C93.3374 102.434 93.2159 101.993 93.0692 101.558C92.2521 99.1264 90.1408 97.971 86.9078 97.2138C85.4287 96.867 84.0002 96.6508 82.5961 96.6725V41.4792L85.7695 39.3618C87.9421 37.9118 88.379 35.1739 86.7441 33.2462C85.7313 32.0518 84.161 31.4506 82.5957 31.5094V13.2514C82.5957 12.0632 81.51 11.1001 80.1706 11.1001C78.8312 11.1001 77.7455 12.0632 77.7455 13.2514V33.7861L72.3996 37.3535L72.3652 31.2707C72.3328 25.6005 67.1066 20.9876 60.7148 20.9876C57.9742 20.9876 37.0314 20.9876 34.285 20.9876C27.8932 20.9876 22.667 25.6005 22.6346 31.2707C22.6297 32.1982 22.4709 60.2366 22.4626 61.7039C18.4846 63.329 15.6935 66.8611 15.5886 70.9732L18.0436 91.566C18.141 92.3615 18.8984 92.9642 19.8 92.9642H34.9479C35.8516 92.9642 36.6098 92.3592 36.7051 91.5616L39.1642 70.9732C39.0598 66.8678 36.2769 63.34 32.3089 61.7113C32.3222 59.3636 32.4726 32.7674 32.4809 31.3145C32.4838 30.8493 32.91 30.4742 33.434 30.4757C33.958 30.4771 34.382 30.8541 34.382 31.3189V58.8819C40.9447 61.8286 43.3109 68.0129 42.9154 71.3255L40.4564 91.9139C40.1571 94.4201 37.7888 96.3103 34.9479 96.3103H34.3841V104.729C34.3841 107.624 37.0289 109.97 40.2918 109.97C43.5547 109.97 46.1995 107.624 46.1995 104.729V62.8403H48.7506V104.73C48.7506 107.625 51.3954 109.971 54.6583 109.971C57.9211 109.971 60.5659 107.625 60.5659 104.73C60.5659 36.2772 60.4611 73.8883 60.4586 31.2329C60.4586 30.7279 60.92 30.3183 61.4896 30.3179C62.0587 30.3179 62.5209 30.7272 62.5209 31.2321C62.5209 31.259 62.5205 31.2865 62.5193 31.3145L62.603 46.0926C62.6126 47.7441 63.6709 49.2496 65.3386 49.9829C67.008 50.7173 68.9999 50.5518 70.4856 49.5604L77.7459 44.7154V97.423C72.4725 98.9359 68.6554 102.202 68.6554 102.202C54.4468 113.519 92.8225 108.701 102.539 109.785C112.256 110.87 107.719 107.655 104.437 104.345ZM35.3927 70.9732H19.3618C19.4505 68.5987 20.8571 66.5151 22.9514 65.2806C23.5699 66.4107 24.5971 67.7456 27.3779 67.7445C30.2556 67.7434 31.1772 66.4239 31.8031 65.2802C33.8974 66.5151 35.3036 68.5984 35.3927 70.9732Z" fill="white"/>
</g>
<defs>
<clipPath id="clip0_32_133">
<rect width="124" height="110" fill="white"/>
</clipPath>
</defs>
</svg>
