<svg width="90" height="90" viewBox="0 0 90 90" fill="none" xmlns="http://www.w3.org/2000/svg">
<path d="M16.6421 19.6874H62.4093C63.5996 18.2812 64.2544 16.5176 64.2209 14.7021C64.1836 12.689 63.3388 10.8208 61.8424 9.50863C61.0276 8.79426 59.7476 7.9331 58.2758 7.9331C58.1838 7.9331 58.0921 7.92994 58.0008 7.9331C54.1816 8.06758 50.5857 6.57713 48.1323 3.84918C46.1316 1.62484 43.2698 0.348145 40.2807 0.348145C37.2734 0.348145 34.4001 1.63662 32.3978 3.88363C29.6605 6.95541 25.5226 8.48787 21.3283 7.98092C21.02 7.94365 20.7048 7.92572 20.3916 7.92572C19.4552 7.92572 18.4747 8.31754 17.4773 9.08605C15.9867 10.2344 15.0392 11.9126 14.8091 13.8035C14.5727 15.7485 15.1146 17.7118 16.3354 19.2457L16.6421 19.6874Z" fill="white"/>
<path d="M33.7747 27.0596C33.8391 27.0596 33.9025 27.0703 33.9651 27.0703H67.8881C69.0113 27.0703 69.9252 26.1721 69.9252 25.0487C69.9252 23.9254 69.0113 23.0273 67.8881 23.0273H15.8009C15.8002 23.0273 15.7995 23.0273 15.7988 23.0273C15.7983 23.0273 15.7978 23.0273 15.7972 23.0273H11.0622C9.93879 23.0273 9.0249 23.9256 9.0249 25.0487C9.0249 26.1721 9.93879 27.0703 11.0622 27.0703H33.5842C33.6469 27.0703 33.7104 27.0596 33.7747 27.0596Z" fill="white"/>
<path d="M60.8203 65.2148H65.5664V40.2677C65.5664 39.6353 65.2653 39.0397 64.8172 38.5908C64.6522 38.4257 64.436 38.2884 64.2357 38.1805C64.2268 38.1756 64.2055 38.1715 64.1965 38.1664C63.8624 37.9919 63.5333 37.8984 63.1447 37.8982C61.8386 37.8984 60.8203 38.9613 60.8203 40.2677V60.8311C60.8203 60.9236 60.8453 61.0178 60.8453 61.1145C60.8453 61.2112 60.8203 61.3054 60.8203 61.3979V65.2148Z" fill="white"/>
<path d="M67.2091 73.6523C66.2419 73.6523 65.5664 72.8782 65.5664 71.9111V68.5547H60.8203V71.9105C60.8203 72.8777 59.9342 73.6523 58.9671 73.6523H58.706C56.0364 73.6523 53.9648 75.8336 53.9648 78.5032V79.6208C53.9648 79.7518 54.0144 79.8877 54.0144 80.0283C54.0144 80.1687 53.9648 80.3048 53.9648 80.4357V81.7383H73.3008V80.4143C73.3008 80.2898 73.2567 80.161 73.2567 80.0281C73.2567 79.8952 73.3008 79.7664 73.3008 79.6419V78.5046C73.3008 78.5023 73.3491 78.4951 73.3493 78.4927C73.3458 75.8259 71.2232 73.6523 68.5556 73.6523H67.2091Z" fill="white"/>
<path d="M31.9922 36.4794V30.5859H14.8938L17.6469 53.3983C25.8226 52.0425 31.9922 44.9295 31.9922 36.4794Z" fill="white"/>
<path d="M79.6636 81.7383H76.8163V83.4558C76.8163 84.423 76.1153 85.2539 75.1482 85.2539H52.1131C51.1459 85.2539 50.4491 84.423 50.4491 83.4558V81.7383H48.5359L47.2246 89.6484H80.975L79.6636 81.7383Z" fill="white"/>
<path d="M57.3047 70.2925V66.966C57.3047 66.9614 57.3047 66.957 57.3047 66.9524V62.9297H18.8093L21.6457 86.2272C21.8853 88.1991 23.5714 89.6484 25.5681 89.6484H43.6739L45.3245 79.7078C45.4651 78.8632 46.1957 78.2227 47.0519 78.2227H50.367C50.4742 74.3555 53.4375 70.9842 57.3047 70.2925Z" fill="white"/>
<path d="M57.3046 40.2676C57.3046 37.0299 59.8949 34.3932 63.1324 34.393C63.2912 34.393 63.4204 34.3696 63.5768 34.3821L64.0175 30.5859H35.5077V36.4794C35.5077 46.703 27.9939 55.3663 18.0762 56.9359L18.3834 59.4141H57.3046V40.2676Z" fill="white"/>
</svg>
