<svg width="123" height="109" viewBox="0 0 123 109" fill="none" xmlns="http://www.w3.org/2000/svg">
<g clip-path="url(#clip0_32_110)">
<path d="M71.9032 78.79L66.6741 72.4056L58.3783 62.2768C55.0518 62.2768 51.8088 62.2768 49.5917 62.2768C48.8853 62.2768 48.2147 61.9982 47.7599 61.5192C47.305 61.0402 47.1111 60.4084 47.2305 59.7915L48.2903 54.3254L43.6514 52.3291L39.8895 69.5409C39.7356 70.2457 39.945 70.9743 40.4603 71.5283C40.9755 72.0823 41.7434 72.4056 42.5537 72.4056C43.6057 72.4056 44.8679 72.4056 46.281 72.4056V103.805C46.281 106.674 48.9054 109 52.1427 109C55.38 109 58.0044 106.675 58.0044 103.805V72.4056C58.8471 72.4056 59.6927 72.4056 60.5353 72.4056V103.805C60.5353 106.674 63.1598 109 66.3971 109C69.6344 109 72.2588 106.675 72.2588 103.805V89.7148C70.1668 86.3166 70.0594 82.2422 71.9032 78.79Z" fill="white"/>
<path d="M59.2698 17.9426C64.8609 17.9426 69.3934 13.926 69.3934 8.97131C69.3934 4.01659 64.8609 0 59.2698 0C53.6787 0 49.1462 4.01659 49.1462 8.97131C49.1462 13.926 53.6787 17.9426 59.2698 17.9426Z" fill="white"/>
<path d="M66.3559 31.8278C67.7467 41.9032 67.2771 38.9982 68.4322 44.9559L72.5072 41.4362C71.7589 38.0129 71.9615 39.116 71.6322 36.7293C72.557 38.7647 73.5682 40.9124 74.5147 43.079L62.9875 53.0349C61.0556 54.7035 61.0159 57.4442 62.8986 59.1562C64.7813 60.8679 67.8739 60.9036 69.8061 59.2347L83.6156 47.3074C84.9866 46.1231 85.4507 44.338 84.8022 42.7417C82.7241 37.6245 80.38 33.101 79.0261 29.6093C77.2022 24.9061 74.3842 22.0702 70.6286 21.1416C68.0512 27.5877 67.8266 28.1494 66.3559 31.8278Z" fill="white"/>
<path d="M77.9929 66.5348L75.9715 57.2866L72.719 60.0957L77.9929 66.5348Z" fill="white"/>
<path d="M92.3194 79.5146L92.1636 79.3247L92.3191 79.5146H92.3194Z" fill="white"/>
<path d="M87.4199 76.0146C85.3317 75.3491 82.9579 75.3303 80.7735 76.0768C80.7721 76.0773 80.7707 76.0775 80.7696 76.078L69.4867 62.3022C67.6108 63.0401 65.4434 63.0839 63.4993 62.376L76.8083 78.6261C75.7138 79.8114 74.952 81.334 74.7374 82.9898C74.4022 85.5681 75.2489 87.3871 76.9157 89.4222L92.3191 79.5145C91.2685 78.23 90.0558 76.8691 87.4199 76.0146Z" fill="white"/>
<path d="M99.5598 88.3548L94.5553 82.2446L79.1519 92.1523L79.1516 92.1521L84.1563 98.2625C84.1568 98.263 84.1574 98.2634 84.1579 98.2642C85.6058 100.024 91.2772 97.2811 93.3187 96.0327C97.0607 93.7388 100.857 89.9386 99.5598 88.3548Z" fill="white"/>
<path d="M58.133 50.6594C59.3114 48.5089 58.2994 45.9188 55.8726 44.8745C55.8726 44.8745 43.8976 39.6708 43.8729 39.6597C49.2944 31.8007 48.6388 32.7809 49.3722 31.5911L51.806 34.5625L52.1491 32.0771C50.2281 27.2731 50.0011 26.7057 47.7897 21.1754C45.7466 21.7219 44.2992 22.8101 43.1882 24.0407C42.2281 25.104 41.5261 26.2601 40.8564 27.3468L27.6088 11.1726C26.8347 10.2273 25.3031 9.9777 24.1932 10.6902C24.1924 10.6907 24.1915 10.6909 24.191 10.6914C23.0974 11.395 22.854 12.7511 23.648 13.7202L38.1463 31.4219C36.5491 33.7083 34.5936 36.4003 32.9545 38.6094C30.7863 41.5315 31.9207 44.1921 34.5677 45.3311L51.6051 52.663C54.0329 53.707 56.9548 52.809 58.133 50.6594Z" fill="white"/>
<path d="M66.7262 20.8022H51.6792C52.5178 22.8988 54.9809 29.0584 55.919 31.4046C58.4755 31.4046 60.1996 31.4046 62.4864 31.4046C63.4282 29.0492 65.9075 22.8494 66.7262 20.8022Z" fill="white"/>
</g>
<defs>
<clipPath id="clip0_32_110">
<rect width="123" height="109" fill="white"/>
</clipPath>
</defs>
</svg>
