<svg width="130" height="126" viewBox="0 0 130 126" fill="none" xmlns="http://www.w3.org/2000/svg">
<path fill-rule="evenodd" clip-rule="evenodd" d="M64.1769 0.591801C65.3366 0.380965 66.5345 0.508783 67.6194 0.959095C68.7043 1.40941 69.6273 2.162 70.2718 3.12172C70.9164 4.08145 71.2534 5.20522 71.2404 6.35098C71.2275 7.49674 70.865 8.61303 70.1989 9.55875C69.5328 10.5045 68.5929 11.2371 67.4981 11.6642C66.4033 12.0912 65.2027 12.1934 64.0481 11.9578C62.8935 11.7222 61.8368 11.1595 61.0114 10.3407C60.1861 9.52192 59.6293 8.48387 59.4113 7.35777C59.2665 6.60958 59.2749 5.841 59.436 5.09596C59.5972 4.35093 59.9079 3.64404 60.3505 3.01569C60.7931 2.38734 61.3588 1.84986 62.0154 1.43396C62.6719 1.01805 63.4064 0.731883 64.1769 0.591801ZM103.284 69.2054C102.659 68.1239 101.732 67.236 100.61 66.6439L102.165 65.8136C103.697 64.9917 104.832 63.6142 105.321 61.9822C105.81 60.3501 105.614 58.5964 104.776 57.1044C104.13 55.9546 103.132 55.0285 101.92 54.4546L103.175 53.7833C103.939 53.3785 104.614 52.8313 105.161 52.173C105.707 51.5147 106.114 50.7582 106.359 49.9467C106.604 49.1353 106.682 48.2849 106.588 47.4442C106.494 46.6036 106.231 45.7891 105.812 45.0476C104.963 43.563 103.544 42.4645 101.864 41.9914C100.185 41.5182 98.3806 41.7087 96.845 42.5214L95.5627 43.281C95.6668 42.1245 95.4458 40.9623 94.9231 39.9183C94.4005 38.8743 93.5959 37.9876 92.5951 37.3529C91.5942 36.7182 90.4348 36.3593 89.2404 36.3144C88.046 36.2695 86.8615 36.5403 85.8132 37.098L79.2377 40.6311C78.5038 39.0868 77.2404 37.8379 75.6635 37.098C74.2707 36.447 72.7071 36.2221 71.1798 36.4532L71.8983 35.0223C72.7787 33.2653 72.9044 31.2406 72.2477 29.3937C71.9226 28.4791 71.4152 27.6358 70.7544 26.9117C70.0937 26.1876 69.2926 25.597 68.3968 25.1736C66.5878 24.3186 64.5031 24.1965 62.6014 24.8342C60.6996 25.472 59.1367 26.8173 58.2563 28.5743L57.5287 30.0317C56.7702 28.7584 55.6404 27.7319 54.2819 27.0815C52.4723 26.2321 50.3898 26.1139 48.4907 26.753C46.5916 27.3921 45.0308 28.7363 44.1504 30.491L28.3802 61.83C28.0222 62.3413 27.7002 62.8754 27.4162 63.4287L26.5067 65.2748L26.4158 65.0452C25.7791 63.4199 25.1971 61.7593 24.9697 61.141C23.4873 56.9366 20.6497 54.852 17.7849 54.4546C16.5222 54.2725 15.2325 54.4188 14.047 54.8785C12.8468 55.3465 11.7889 56.1034 10.973 57.0779C8.97215 59.4451 8.17182 63.2609 10.109 67.8275V67.907C12.1644 73.772 16.9846 91.7027 22.2777 97.3469C28.8259 104.325 45.7874 110.879 54.9094 107.752C60.133 105.967 64.4186 102.249 66.8326 97.4087L67.742 95.5362C78.7163 89.6829 89.6936 83.815 100.674 77.9323C102.204 77.1089 103.337 75.7307 103.824 74.0988C104.312 72.4669 104.114 70.714 103.275 69.2231L103.284 69.2054ZM79.9198 43.4753C82.3481 42.1857 84.8037 40.8873 87.2501 39.5712C88.0855 39.1318 89.0648 39.0271 89.9785 39.2797C90.4337 39.4055 90.8586 39.6179 91.2287 39.9045C91.5987 40.191 91.9064 40.5461 92.134 40.9491C92.5864 41.7605 92.6942 42.7115 92.4341 43.599C92.303 44.0393 92.0837 44.45 91.7887 44.8078C91.4938 45.1655 91.1289 45.4631 90.7152 45.6835L83.2576 49.6672C83.012 49.5258 82.7755 49.3845 82.5118 49.2608C81.1913 48.6369 79.7122 48.4005 78.2555 48.5807L79.1649 46.8141C79.6807 45.7734 79.9392 44.6302 79.9198 43.4753ZM85.5585 51.9019L98.2911 45.1006C99.1277 44.6641 100.107 44.5626 101.019 44.8179C101.474 44.9434 101.897 45.1557 102.266 45.4424C102.635 45.7291 102.94 46.0843 103.166 46.4873C103.618 47.2987 103.726 48.2497 103.466 49.1372C103.339 49.5803 103.121 49.994 102.826 50.3537C102.53 50.7133 102.164 51.0115 101.747 51.2306L85.6676 59.8249L86.0132 59.1183C86.4499 58.2503 86.7046 57.3067 86.7624 56.3423C86.8201 55.3779 86.6799 54.4119 86.3498 53.5006C86.153 52.9388 85.8874 52.402 85.5585 51.9019ZM83.2576 64.63L97.2725 57.1398C97.6852 56.9194 98.1386 56.7802 98.6068 56.7302C99.075 56.6802 99.5487 56.7203 100.001 56.8483C100.457 56.9727 100.882 57.1845 101.252 57.4713C101.623 57.758 101.93 58.1138 102.156 58.5177C102.605 59.3316 102.707 60.2836 102.442 61.1701C102.177 62.0565 101.565 62.807 100.738 63.2609L81.8297 73.3657L83.2757 75.9626L95.79 69.2761C96.6254 68.8366 97.6047 68.732 98.5184 68.9846C98.9755 69.1092 99.4019 69.322 99.7723 69.6104C100.143 69.8987 100.449 70.2567 100.674 70.6629C101.126 71.4742 101.234 72.4253 100.974 73.3127C100.846 73.7554 100.628 74.1687 100.333 74.5282C100.037 74.8878 99.671 75.1863 99.2551 75.4061L70.0612 90.9784L83.2576 64.63ZM63.7404 95.9337C61.7197 99.9954 58.1214 103.112 53.7362 104.599C45.9602 107.249 30.3447 101.013 24.7787 95.0857C20.095 90.0951 14.8928 71.1575 13.374 66.8294C13.3568 66.7509 13.3324 66.674 13.3012 66.5997L11.7097 67.2445L13.2921 66.5997C11.8825 63.2963 12.3281 60.6994 13.6286 59.1801C14.0838 58.6388 14.6762 58.2217 15.3475 57.97C15.9716 57.7206 16.6531 57.6383 17.3211 57.7316C19.0218 57.9789 20.7498 59.3568 21.7593 62.201C21.9957 62.8546 22.6051 64.5858 23.2417 66.2111C23.7177 67.5266 24.327 68.793 25.0607 69.9916C25.2301 70.2754 25.4836 70.5032 25.7882 70.6452H27.307L30.6448 64.8862C36.1198 53.8098 41.6676 42.9365 47.2426 31.7983C47.7263 30.8431 48.5797 30.1127 49.6163 29.7667C50.1278 29.59 50.6706 29.5146 51.2126 29.545C51.7547 29.5753 52.2849 29.7108 52.7722 29.9434C53.7551 30.4096 54.5074 31.2355 54.8639 32.2399C55.0459 32.7367 55.1235 33.2639 55.0923 33.7903C55.0611 34.3167 54.9216 34.8317 54.682 35.3049L43.8685 56.9101L47.0698 58.4294L61.3576 29.9081C61.7122 29.1899 62.2794 28.5908 62.9867 28.1876C63.6939 27.7844 64.509 27.5953 65.3275 27.6447C66.146 27.694 66.9308 27.9795 67.5813 28.4645C68.2318 28.9496 68.7184 29.6121 68.9789 30.3674C69.1572 30.8637 69.2321 31.3894 69.1993 31.9141C69.1665 32.4387 69.0267 32.9518 68.7879 33.4235L54.5002 61.9448L57.7742 63.4906L68.6242 41.8412C68.8625 41.3674 69.1949 40.944 69.6023 40.5953C70.0096 40.2467 70.4839 39.9797 70.9979 39.8097C71.7699 39.5536 72.6027 39.5249 73.3915 39.7271C74.1803 39.9293 74.8899 40.3534 75.4312 40.9462C75.9726 41.5389 76.3214 42.2738 76.4339 43.0586C76.5464 43.8433 76.4176 44.6429 76.0637 45.3567L65.2046 66.9972L68.3059 68.4635L75.4725 54.1454C75.7108 53.6716 76.0432 53.2482 76.4506 52.8995C76.8579 52.5509 77.3322 52.2839 77.8462 52.1139C78.3577 51.9371 78.9005 51.8617 79.4426 51.8921C79.9846 51.9224 80.5148 52.0579 81.0021 52.2905C81.9849 52.7605 82.737 53.5884 83.0946 54.5941C83.4523 55.5998 83.3866 56.702 82.912 57.6609C76.5214 70.4155 70.1309 83.1731 63.7404 95.9337ZM116.908 42.1416C116.418 41.7017 115.804 41.4129 115.145 41.3117C114.485 41.2106 113.81 41.3017 113.204 41.5734C112.598 41.8451 112.089 42.2853 111.74 42.8382C111.392 43.3912 111.22 44.0321 111.247 44.6798C111.274 45.3276 111.498 45.9531 111.89 46.4772C112.283 47.0013 112.827 47.4005 113.454 47.6242C114.08 47.848 114.761 47.8862 115.41 47.7342C116.059 47.5821 116.646 47.2466 117.099 46.77C117.401 46.4549 117.636 46.0847 117.791 45.6809C117.945 45.277 118.015 44.8475 117.997 44.4171C117.98 43.9867 117.874 43.564 117.687 43.1734C117.5 42.7828 117.235 42.4321 116.908 42.1416ZM114.37 43.281C114.627 43.2328 114.892 43.2597 115.133 43.3582C115.374 43.4567 115.579 43.6224 115.722 43.8343C115.866 44.0461 115.942 44.2946 115.94 44.5483C115.938 44.8019 115.858 45.0493 115.711 45.259C115.564 45.4687 115.356 45.6313 115.114 45.7262C114.872 45.8211 114.606 45.844 114.351 45.792C114.095 45.7401 113.861 45.6155 113.678 45.4343C113.496 45.253 113.373 45.0231 113.325 44.7738C113.261 44.4412 113.335 44.0976 113.531 43.8179C113.727 43.5383 114.029 43.3452 114.37 43.281ZM110.996 24.2639C110.13 23.4828 109.045 22.9689 107.878 22.7871C106.71 22.6053 105.514 22.7638 104.44 23.2425C103.365 23.7212 102.461 24.4986 101.842 25.4765C101.223 26.4543 100.916 27.5886 100.96 28.7358C101.005 29.883 101.399 30.9915 102.092 31.9213C102.786 32.851 103.747 33.5601 104.856 33.9589C105.964 34.3577 107.17 34.4282 108.319 34.1615C109.469 33.8948 110.511 33.3029 111.315 32.4608C112.391 31.3324 112.962 29.8353 112.902 28.2983C112.843 26.7614 112.157 25.3103 110.996 24.2639ZM106.358 25.5535C106.962 25.4435 107.587 25.5099 108.152 25.7444C108.718 25.9788 109.199 26.3708 109.535 26.8707C109.871 27.3707 110.047 27.9562 110.041 28.5533C110.035 29.1504 109.847 29.7323 109.5 30.2255C109.153 30.7187 108.664 31.1011 108.094 31.3244C107.524 31.5476 106.898 31.6017 106.296 31.4799C105.694 31.358 105.143 31.0656 104.712 30.6396C104.281 30.2137 103.99 29.6732 103.875 29.0866C103.799 28.6962 103.802 28.2951 103.886 27.9061C103.97 27.5171 104.131 27.1479 104.362 26.8197C104.592 26.4915 104.888 26.2107 105.23 25.9934C105.573 25.7762 105.956 25.6266 106.358 25.5535ZM86.5498 0C88.5325 8.83286 94.4713 13.1963 94.4713 17.5951C94.4713 21.9938 92.4978 26.4279 86.5589 26.4279C80.6201 26.4279 78.6375 22.0115 78.6375 17.5951C78.6375 13.1786 84.5672 8.83286 86.5498 0ZM49.8164 11.0764C50.4724 10.9634 51.1481 11.0416 51.7583 11.301C52.3686 11.5604 52.8862 11.9895 53.2458 12.5342C53.6054 13.0788 53.791 13.7147 53.7791 14.3616C53.7672 15.0085 53.5584 15.6375 53.179 16.1693C52.7996 16.7012 52.2665 17.112 51.6471 17.3501C51.0277 17.5882 50.3495 17.6429 49.6981 17.5072C49.0467 17.3716 48.4513 17.0517 47.9868 16.5879C47.5223 16.1241 47.2095 15.5372 47.088 14.901C47.0067 14.4757 47.0129 14.039 47.1063 13.6161C47.1997 13.1932 47.3783 12.7924 47.632 12.4368C47.8856 12.0812 48.2092 11.778 48.5841 11.5445C48.9591 11.311 49.3779 11.1519 49.8164 11.0764ZM50.1984 13.0461C50.453 12.9997 50.716 13.0277 50.9543 13.1266C51.1925 13.2254 51.3952 13.3906 51.5367 13.6014C51.6782 13.8121 51.7522 14.0589 51.7494 14.3104C51.7465 14.562 51.6668 14.8071 51.5205 15.0147C51.3742 15.2223 51.1677 15.3831 50.9273 15.4768C50.6869 15.5704 50.4232 15.5927 50.1697 15.5409C49.9163 15.489 49.6843 15.3652 49.5032 15.1853C49.3222 15.0054 49.2001 14.7774 49.1525 14.5301C49.0911 14.1989 49.1665 13.8575 49.3622 13.5798C49.5579 13.3022 49.8583 13.1104 50.1984 13.0461ZM64.7499 3.32999C65.3542 3.22001 65.9785 3.28645 66.544 3.52091C67.1094 3.75536 67.5907 4.14732 67.9269 4.64727C68.2631 5.14722 68.4392 5.73273 68.4329 6.32983C68.4267 6.92694 68.2384 7.50885 67.8918 8.00206C67.5452 8.49527 67.0559 8.87766 66.4856 9.10091C65.9154 9.32417 65.2898 9.37827 64.6879 9.2564C64.086 9.13452 63.5348 8.84214 63.1039 8.41617C62.673 7.9902 62.3818 7.44977 62.267 6.86313C62.1906 6.47276 62.1943 6.07159 62.2778 5.6826C62.3613 5.29361 62.523 4.92444 62.7536 4.59624C62.9843 4.26804 63.2793 3.98725 63.6219 3.76997C63.9644 3.55268 64.3477 3.40317 64.7499 3.32999Z" fill="white"/>
</svg>
