<svg width="20" height="24" viewBox="0 0 20 24" fill="none" xmlns="http://www.w3.org/2000/svg">
<path d="M19.0682 7.13011H14.4922C14.4922 5.05011 13.6602 4.02611 11.4842 4.02611C8.54022 4.02611 7.93222 5.88211 7.93222 7.45011C7.93222 8.57011 8.25222 9.56211 8.28422 9.65811C8.28422 9.65811 8.31622 9.75411 8.31622 9.85011H12.5402V14.2021H8.79622V14.7141C8.79622 15.9621 8.70022 17.1781 8.47622 18.3621H18.2362V23.1621H0.764219C0.764219 23.1621 3.83622 20.6021 3.67622 14.2021H1.24422V9.85011H3.13222C3.13222 9.81811 3.13222 9.81811 3.13222 9.81811L3.10022 9.72211V9.69011L3.03622 9.40211V9.37011L3.00422 9.30611C3.00422 9.27411 2.81222 8.50611 2.81222 7.41811C2.81222 4.89011 3.90022 0.634108 11.2602 0.634108C18.3322 0.634108 19.1322 4.53811 19.1322 6.29811C19.1322 6.81011 19.0682 7.13011 19.0682 7.13011Z" fill="white"/>
</svg>
