<svg width="122" height="105" viewBox="0 0 122 105" fill="none" xmlns="http://www.w3.org/2000/svg">
<path d="M38.8874 56.1094C50.7061 66.2812 57.1874 80.0625 57.1874 94.5V96.1406C57.1874 98.7656 60.2374 100.406 62.9061 99.0938C64.0499 98.7656 65.1936 98.7656 66.3374 99.0938L70.5311 100.734C71.6749 101.062 72.8186 101.062 73.9624 100.734L78.1561 99.0938C79.2999 98.7656 80.4436 98.7656 81.5874 99.0938L85.7811 100.734C86.9249 101.062 88.0686 101.062 89.2124 100.734L93.4061 99.0938C94.5499 98.7656 95.6936 98.7656 96.8374 99.0938C99.5061 100.406 102.556 98.4375 102.556 96.1406V57.4219V49.2188V27.8906C102.937 25.2656 100.269 22.9688 97.2186 22.9688C94.1686 22.9688 91.4999 25.2656 91.4999 27.8906V24.6094C91.4999 21.9844 88.8311 19.6875 85.7811 19.6875C82.7311 19.6875 80.0624 21.9844 80.0624 24.6094V21.3281C80.0624 18.7031 77.3936 16.4062 74.3436 16.4062C71.2936 16.4062 68.6249 18.7031 68.6249 21.3281V24.6094C68.6249 21.9844 65.9561 19.6875 62.9061 19.6875C59.8561 19.6875 57.1874 21.9844 57.1874 24.6094V49.2188V57.0938L47.6561 48.8906C45.3686 46.9219 41.9374 46.5938 39.6499 48.2344C36.2186 50.2031 36.2186 53.8125 38.8874 56.1094Z" fill="white"/>
<path d="M49.5625 86.9531C49.5625 79.0781 46.1313 71.5312 39.65 65.9531L33.55 60.7031C30.5 58.0781 29.3563 54.7969 29.7375 51.5156C30.1188 47.9062 32.025 44.9531 35.4563 42.9844C39.65 40.3594 45.3688 40.0312 49.9438 42.3281V25.5938C49.9438 19.0313 56.0438 13.4531 63.6688 13.4531C64.4313 13.4531 64.8125 13.4531 65.575 13.4531C66.7188 12.4688 67.8625 11.8125 69.3875 11.1563C68.2438 8.53125 65.9563 6.5625 62.9063 6.5625C59.8563 6.5625 57.1875 8.85938 57.1875 11.4844V8.20312C57.1875 5.57812 54.5188 3.28125 51.4688 3.28125C48.4188 3.28125 45.75 5.57812 45.75 8.20312V11.4844C45.75 8.85938 43.0813 6.5625 40.0313 6.5625C36.9813 6.5625 34.3125 8.85938 34.3125 11.4844V14.7656C34.3125 12.1406 31.6438 9.84375 28.5938 9.84375C25.5438 9.84375 22.875 12.1406 22.875 14.7656V36.0938V44.2969V83.0156C22.875 85.6406 25.925 87.2812 28.5938 86.2969C29.7375 85.9688 30.8812 85.6406 32.025 86.2969L36.2188 88.2656C37.3625 88.5938 38.5062 88.5938 39.65 88.2656L43.8438 86.625C44.9875 86.2969 46.1313 86.2969 47.275 86.625L49.5625 86.9531Z" fill="white"/>
</svg>
