<svg width="54" height="54" viewBox="0 0 54 54" fill="none" xmlns="http://www.w3.org/2000/svg">
<path d="M31.5 13.5H38.25C38.8467 13.5 39.419 13.7371 39.841 14.159C40.2629 14.581 40.5 15.1533 40.5 15.75V31.5" stroke="#171AD4" stroke-width="4" stroke-linecap="round" stroke-linejoin="round"/>
<path d="M18 13.5H11.25C10.6533 13.5 10.081 13.7371 9.65901 14.159C9.23705 14.581 9 15.1533 9 15.75V45C9 45.5967 9.23705 46.169 9.65901 46.591C10.081 47.0129 10.6533 47.25 11.25 47.25H24.75" stroke="#171AD4" stroke-width="4" stroke-linecap="round" stroke-linejoin="round"/>
<path d="M18 38.25H24.75M18 29.25H31.5M31.5 42.75L36 47.25L45 38.25M29.25 11.25C29.25 10.0565 28.7759 8.91193 27.932 8.06802C27.0881 7.22411 25.9435 6.75 24.75 6.75C23.5565 6.75 22.4119 7.22411 21.568 8.06802C20.7241 8.91193 20.25 10.0565 20.25 11.25C19.6533 11.25 19.081 11.4871 18.659 11.909C18.2371 12.331 18 12.9033 18 13.5V18H31.5V13.5C31.5 12.9033 31.2629 12.331 30.841 11.909C30.419 11.4871 29.8467 11.25 29.25 11.25Z" stroke="#12B368" stroke-width="4" stroke-linecap="round" stroke-linejoin="round"/>
</svg>
