<svg width="100" height="100" viewBox="0 0 100 100" fill="none" xmlns="http://www.w3.org/2000/svg">
<path d="M64.189 9.40748C65.1706 9.40748 65.9663 8.61173 65.9663 7.63013C65.9663 6.64853 65.1706 5.85278 64.189 5.85278C63.2074 5.85278 62.4116 6.64853 62.4116 7.63013C62.4116 8.61173 63.2074 9.40748 64.189 9.40748Z" fill="white"/>
<path d="M75.8953 3.55469C76.8769 3.55469 77.6726 2.75895 77.6726 1.77735C77.6726 0.795746 76.8769 0 75.8953 0C74.9137 0 74.1179 0.795746 74.1179 1.77735C74.1179 2.75895 74.9137 3.55469 75.8953 3.55469Z" fill="white"/>
<path d="M75.8953 15.2593C76.8769 15.2593 77.6726 14.4635 77.6726 13.4819C77.6726 12.5003 76.8769 11.7046 75.8953 11.7046C74.9137 11.7046 74.1179 12.5003 74.1179 13.4819C74.1179 14.4635 74.9137 15.2593 75.8953 15.2593Z" fill="white"/>
<path d="M75.8953 9.40748C76.8769 9.40748 77.6726 8.61173 77.6726 7.63013C77.6726 6.64853 76.8769 5.85278 75.8953 5.85278C74.9137 5.85278 74.1179 6.64853 74.1179 7.63013C74.1179 8.61173 74.9137 9.40748 75.8953 9.40748Z" fill="white"/>
<path d="M70.0432 12.3337C71.0248 12.3337 71.8206 11.538 71.8206 10.5564C71.8206 9.5748 71.0248 8.77905 70.0432 8.77905C69.0616 8.77905 68.2659 9.5748 68.2659 10.5564C68.2659 11.538 69.0616 12.3337 70.0432 12.3337Z" fill="white"/>
<path d="M70.0432 6.48096C71.0248 6.48096 71.8206 5.68522 71.8206 4.70362C71.8206 3.72202 71.0248 2.92627 70.0432 2.92627C69.0616 2.92627 68.2659 3.72202 68.2659 4.70362C68.2659 5.68522 69.0616 6.48096 70.0432 6.48096Z" fill="white"/>
<path d="M67.0752 30.0395C66.7523 22.0082 60.1426 15.5957 52.0322 15.5957H39.5734C31.463 15.5957 24.8532 22.0082 24.5304 30.0395H22.3276V39.3514H69.2779V30.0395H67.0752Z" fill="white"/>
<path d="M51.7713 0.00366211H39.8357V9.07282H51.7713V0.00366211Z" fill="white"/>
<path d="M67.0907 52.0695V45.873H24.5144V84.1669H67.0907V77.9704H45.8023V52.0695H67.0907Z" fill="white"/>
<path d="M69.2779 90.688H22.3274V99.9999H69.2779V90.688Z" fill="white"/>
</svg>
