<svg width="49" height="49" viewBox="0 0 49 49" fill="none" xmlns="http://www.w3.org/2000/svg">
<path d="M6.125 22.4583C6.125 14.7587 6.125 10.9089 8.51696 8.51696C10.9089 6.125 14.7587 6.125 22.4583 6.125H26.5417C34.2412 6.125 38.0912 6.125 40.483 8.51696C42.875 10.9089 42.875 14.7587 42.875 22.4583V26.5417C42.875 34.2412 42.875 38.0912 40.483 40.483C38.0912 42.875 34.2412 42.875 26.5417 42.875H22.4583C14.7587 42.875 10.9089 42.875 8.51696 40.483C6.125 38.0912 6.125 34.2412 6.125 26.5417V22.4583Z" stroke="white" stroke-width="3"/>
<path d="M33.6875 18.375C35.3789 18.375 36.75 17.0039 36.75 15.3125C36.75 13.6211 35.3789 12.25 33.6875 12.25C31.9961 12.25 30.625 13.6211 30.625 15.3125C30.625 17.0039 31.9961 18.375 33.6875 18.375Z" fill="white"/>
<path d="M24.5 30.625C27.8827 30.625 30.625 27.8827 30.625 24.5C30.625 21.1173 27.8827 18.375 24.5 18.375C21.1173 18.375 18.375 21.1173 18.375 24.5C18.375 27.8827 21.1173 30.625 24.5 30.625Z" stroke="white" stroke-width="3"/>
</svg>
