<svg width="100" height="100" viewBox="0 0 100 100" fill="none" xmlns="http://www.w3.org/2000/svg">
<path d="M85.9141 8.50796H100V1.27905H85.9141C79.7877 1.27905 74.5762 5.45503 73.2408 11.4339L64.0916 52.4009H43.0473C32.315 52.4009 22.2713 55.7794 14.7668 61.9144C9.20508 66.4609 5.42754 72.2019 3.71836 78.5533C1.43301 80.6812 0 83.7128 0 87.0744C0 93.4962 5.22461 98.7208 11.6465 98.7208C16.4025 98.7208 20.4994 95.8539 22.3062 91.7583H44.8385C48.4508 96.0132 53.8332 98.7208 59.8393 98.7208C70.2309 98.7208 78.7611 90.6232 79.4652 80.4074L98.2594 74.7691V56.9796C98.2594 53.6886 96.7451 50.6742 94.1047 48.7095C91.4645 46.7453 88.1428 46.1603 84.9896 47.1064L71.7971 51.0642L80.2961 13.0097C80.8879 10.3593 83.1981 8.50796 85.9141 8.50796ZM11.6465 91.4921C9.21074 91.4921 7.22891 89.5105 7.22891 87.0746C7.22891 84.6386 9.21094 82.657 11.6465 82.657C14.0824 82.657 16.0643 84.6386 16.0643 87.0746C16.0643 89.5105 14.0824 91.4921 11.6465 91.4921ZM72.2891 79.0423C72.2891 85.9072 66.7039 91.4921 59.8393 91.4921C52.9746 91.4921 47.3896 85.907 47.3896 79.0423C47.3896 72.1775 52.9748 66.5925 59.8393 66.5925C66.7041 66.5923 72.2891 72.1775 72.2891 79.0423Z" fill="white"/>
<path d="M59.8386 82.6554C61.8348 82.6554 63.453 81.0372 63.453 79.041C63.453 77.0448 61.8348 75.4265 59.8386 75.4265C57.8424 75.4265 56.2241 77.0448 56.2241 79.041C56.2241 81.0372 57.8424 82.6554 59.8386 82.6554Z" fill="white"/>
</svg>
