<svg width="100" height="102" viewBox="0 0 100 102" fill="none" xmlns="http://www.w3.org/2000/svg">
<path d="M18.4912 22.3124H69.3436C70.6662 20.7186 71.3938 18.7199 71.3565 16.6623C71.3151 14.3809 70.3764 12.2636 68.7137 10.7764C67.8084 9.96679 66.3862 8.99082 64.7508 8.99082C64.6487 8.99082 64.5467 8.98724 64.4453 8.99082C60.2018 9.14322 56.2063 7.45405 53.4803 4.36237C51.2573 1.84146 48.0776 0.394531 44.7563 0.394531C41.4149 0.394531 38.2223 1.8548 35.9975 4.40142C32.9561 7.88277 28.3584 9.61955 23.6981 9.04501C23.3555 9.00277 23.0053 8.98245 22.6573 8.98245C21.6168 8.98245 20.5274 9.42651 19.4192 10.2975C17.7629 11.599 16.7102 13.5009 16.4545 15.6439C16.1918 17.8483 16.794 20.0734 18.1504 21.8117L18.4912 22.3124Z" fill="white"/>
<path d="M37.5276 30.6675C37.5991 30.6675 37.6696 30.6797 37.7392 30.6797H75.4314C76.6794 30.6797 77.6948 29.6617 77.6948 28.3885C77.6948 27.1155 76.6794 26.0977 75.4314 26.0977H17.5567C17.556 26.0977 17.5552 26.0977 17.5544 26.0977C17.5538 26.0977 17.5532 26.0977 17.5526 26.0977H12.2915C11.0433 26.0977 10.0278 27.1157 10.0278 28.3885C10.0278 29.6617 11.0433 30.6797 12.2915 30.6797H37.3159C37.3856 30.6797 37.4562 30.6675 37.5276 30.6675Z" fill="white"/>
<path d="M67.5781 73.91H72.8516V45.6366C72.8516 44.9199 72.517 44.2449 72.0191 43.7361C71.8357 43.549 71.5955 43.3934 71.373 43.2711C71.3631 43.2655 71.3395 43.261 71.3295 43.2552C70.9582 43.0574 70.5926 42.9514 70.1607 42.9512C68.7096 42.9514 67.5781 44.156 67.5781 45.6366V68.9419C67.5781 69.0466 67.6059 69.1534 67.6059 69.263C67.6059 69.3726 67.5781 69.4793 67.5781 69.5841V73.91Z" fill="white"/>
<path d="M74.6768 83.4727C73.6021 83.4727 72.8516 82.5953 72.8516 81.4992V77.6953H67.5781V81.4986C67.5781 82.5947 66.5936 83.4727 65.5189 83.4727H65.2289C62.2627 83.4727 59.9609 85.9448 59.9609 88.9703V90.2369C59.9609 90.3853 60.016 90.5393 60.016 90.6987C60.016 90.8579 59.9609 91.0121 59.9609 91.1605V92.6367H81.4453V91.1362C81.4453 90.9952 81.3963 90.8491 81.3963 90.6985C81.3963 90.5479 81.4453 90.4019 81.4453 90.2608V88.9719C81.4453 88.9693 81.499 88.9611 81.4992 88.9583C81.4953 85.936 79.1369 83.4727 76.1729 83.4727H74.6768Z" fill="white"/>
<path d="M35.5471 41.3433V34.6641H16.5488L19.6078 60.5181C28.692 58.9815 35.5471 50.9201 35.5471 41.3433Z" fill="white"/>
<path d="M88.5153 92.6367H85.3516V94.5833C85.3516 95.6794 84.5727 96.6211 83.4981 96.6211H57.9036C56.829 96.6211 56.0547 95.6794 56.0547 94.5833V92.6367H53.929L52.4719 101.602H89.9723L88.5153 92.6367Z" fill="white"/>
<path d="M63.6721 79.6648V75.8948C63.6721 75.8896 63.6721 75.8846 63.6721 75.8794V71.3203H20.8994L24.051 97.7242C24.3172 99.959 26.1906 101.602 28.4092 101.602H48.5268L50.3607 90.3355C50.517 89.3783 51.3287 88.6523 52.2801 88.6523H55.9635C56.0826 84.2695 59.3752 80.4487 63.6721 79.6648Z" fill="white"/>
<path d="M63.6721 45.6366C63.6721 41.9672 66.5502 38.9789 70.1475 38.9787C70.3238 38.9787 70.4674 38.9522 70.6412 38.9664L71.1309 34.6641H39.4533V41.3433C39.4533 52.93 31.1047 62.7485 20.085 64.5274L20.4264 67.3359H63.6721V45.6366Z" fill="white"/>
</svg>
