<svg width="115" height="82" viewBox="0 0 115 82" fill="none" xmlns="http://www.w3.org/2000/svg">
<g clip-path="url(#clip0_2005_11)">
<path d="M113.469 36.9208L78.0313 1.48331C77.0429 0.494859 75.7469 0 74.4522 0C73.1574 0 71.8614 0.494859 70.873 1.48331L35.4355 36.9208C33.4586 38.9028 33.5573 42.0036 35.5342 43.9805C37.5162 45.9675 40.4132 46.2599 42.3964 44.2766L44.1252 42.5465V75.9375C44.1252 78.7358 46.3894 81 49.1877 81H69.4377V60.75H79.5627V81H99.8127C102.611 81 104.875 78.7358 104.875 75.9375V42.6452L106.388 44.1577C108.365 46.1346 111.386 45.9574 113.369 43.9792C115.347 42.0036 115.451 38.8977 113.469 36.9208Z" fill="white"/>
</g>
<g clip-path="url(#clip1_2005_11)">
<path d="M17.625 64.375H8.8125V61.4375H17.625V64.375Z" fill="white"/>
<path d="M11.75 76.125H2.9375L2.9375 73.1875H11.75V76.125Z" fill="white"/>
<path d="M14.6875 70.25H5.875V67.3125H14.6875V70.25Z" fill="white"/>
<path d="M22.027 64.375C22.0374 63.1357 22.3681 61.9201 22.9869 60.8462C23.6056 59.7723 24.4915 58.8766 25.5584 58.2461L14.6875 39.4062L17.2297 37.9375L28.3567 57.2163C29.7225 56.9111 31.1431 56.9532 32.4885 57.3388C33.8338 57.7244 35.061 58.4413 36.0578 59.4237C41.5562 64.7275 41.1304 77.1268 41.1103 77.6525C41.0951 78.0318 40.9337 78.3904 40.6599 78.6533C40.3861 78.9162 40.0211 79.0628 39.6415 79.0625H17.6232C17.315 79.0625 17.0145 78.9655 16.7644 78.7853C16.5143 78.605 16.3273 78.3507 16.2298 78.0582C16.1324 77.7658 16.1294 77.4501 16.2213 77.1558C16.3132 76.8616 16.4954 76.6037 16.742 76.4188C21.9409 72.5176 22.027 64.4539 22.027 64.375ZM29.4778 59.9645C28.3022 59.9774 27.1769 60.443 26.336 61.2645C25.495 62.086 25.0031 63.2001 24.9627 64.375C24.9627 64.431 24.9599 64.6805 24.938 65.0635L33.6028 61.2101C33.0321 60.7395 32.3735 60.387 31.6653 60.1732C30.9572 59.9593 30.2136 59.8884 29.4778 59.9645ZM24.3087 76.125C25.4823 74.9295 26.2304 73.3812 26.4375 71.7188H29.375C29.2697 73.282 28.7812 74.7952 27.9526 76.125H31.2181C31.8222 74.2189 32.1897 72.2458 32.3125 70.25H35.25C35.1552 72.2398 34.8272 74.2116 34.273 76.125H38.1875C38.1419 73.4278 37.7615 67.471 35.5398 63.5632L24.4757 68.4835C23.9435 71.2437 22.8096 73.8528 21.1547 76.125H24.3087Z" fill="white"/>
</g>
<defs>
<clipPath id="clip0_2005_11">
<rect width="81" height="81" fill="white" transform="translate(34)"/>
</clipPath>
<clipPath id="clip1_2005_11">
<rect width="47" height="47" fill="white" transform="matrix(-1 0 0 1 47 35)"/>
</clipPath>
</defs>
</svg>
