<svg width="43" height="43" viewBox="0 0 43 43" fill="none" xmlns="http://www.w3.org/2000/svg">
<path d="M21.4999 3.5835C11.6207 3.5835 3.58325 11.6209 3.58325 21.5002C3.58325 31.3794 11.6207 39.4168 21.4999 39.4168C31.3792 39.4168 39.4166 31.3794 39.4166 21.5002C39.4166 11.6209 31.3792 3.5835 21.4999 3.5835ZM21.4999 35.8335C13.5969 35.8335 7.16658 29.4032 7.16658 21.5002C7.16658 13.5971 13.5969 7.16683 21.4999 7.16683C29.403 7.16683 35.8332 13.5971 35.8332 21.5002C35.8332 29.4032 29.403 35.8335 21.4999 35.8335Z" fill="#12B368"/>
<path d="M15.2292 19.7085C16.7135 19.7085 17.9167 18.5053 17.9167 17.021C17.9167 15.5367 16.7135 14.3335 15.2292 14.3335C13.745 14.3335 12.5417 15.5367 12.5417 17.021C12.5417 18.5053 13.745 19.7085 15.2292 19.7085Z" fill="#171AD4"/>
<path d="M27.7582 19.6834C29.2355 19.6834 30.4332 18.4858 30.4332 17.0085C30.4332 15.5311 29.2355 14.3335 27.7582 14.3335C26.2809 14.3335 25.0833 15.5311 25.0833 17.0085C25.0833 18.4858 26.2809 19.6834 27.7582 19.6834Z" fill="#171AD4"/>
<path d="M21.5 32.2498C30.4583 32.2498 32.25 23.2915 32.25 23.2915H10.75C10.75 23.2915 12.5417 32.2498 21.5 32.2498Z" fill="#12B368"/>
</svg>
