<svg width="38" height="38" viewBox="0 0 38 38" fill="none" xmlns="http://www.w3.org/2000/svg">
<g clip-path="url(#clip0_20_32)">
<path d="M0 30.894V7.144C0 5.168 0.696667 3.48333 2.09 2.09C3.48333 0.696667 5.168 0 7.144 0H30.894C32.8447 0 34.5167 0.696667 35.91 2.09C37.3033 3.48333 38 5.168 38 7.144V30.894C38 32.87 37.3033 34.542 35.91 35.91C34.5167 37.278 32.8447 37.9747 30.894 38H7.144C5.168 38 3.48333 37.3033 2.09 35.91C0.696667 34.5167 0 32.8447 0 30.894ZM4.75 30.894C4.75 31.5527 4.978 32.11 5.434 32.566C5.89 33.022 6.46 33.25 7.144 33.25H30.894C31.5273 33.25 32.0847 33.022 32.566 32.566C33.0473 32.11 33.2753 31.5527 33.25 30.894V7.144C33.25 6.48533 33.022 5.928 32.566 5.472C32.11 5.016 31.5527 4.77533 30.894 4.75H7.144C6.48533 4.75 5.91533 4.99067 5.434 5.472C4.95267 5.95333 4.72467 6.51067 4.75 7.144V30.894ZM9.006 19C9.006 18.3413 9.24667 17.784 9.728 17.328C10.2093 16.872 10.7667 16.644 11.4 16.644C12.0333 16.644 12.5907 16.872 13.072 17.328L16.454 20.672L24.852 12.312C25.308 11.8307 25.8653 11.59 26.524 11.59C27.1827 11.59 27.74 11.8307 28.196 12.312C28.652 12.7933 28.8927 13.3507 28.918 13.984C28.9433 14.6173 28.7027 15.1747 28.196 15.656L18.126 25.726C17.67 26.2073 17.1127 26.448 16.454 26.448C15.7953 26.448 15.238 26.2073 14.782 25.726L9.728 20.672C9.24667 20.216 9.006 19.6587 9.006 19Z" fill="#538FDF"/>
</g>
<defs>
<clipPath id="clip0_20_32">
<rect width="38" height="38" fill="white"/>
</clipPath>
</defs>
</svg>
