<svg width="43" height="43" viewBox="0 0 43 43" fill="none" xmlns="http://www.w3.org/2000/svg">
<g clip-path="url(#clip0_40_20)">
<path fill-rule="evenodd" clip-rule="evenodd" d="M34.0152 30.3604C33.497 31.8271 31.4373 33.0405 29.7947 33.3953C28.6703 33.6341 27.2039 33.8229 22.2632 31.7755C16.7141 29.4765 9.00851 21.2871 9.00851 15.8374C9.00851 13.063 10.6081 9.83247 13.4053 9.83247C14.7512 9.83247 15.0479 9.85872 15.4908 10.9211C16.0089 12.1728 17.2731 15.2567 17.4236 15.5728C18.045 16.8696 16.7915 17.6288 15.882 18.7579C15.5918 19.0977 15.2629 19.4652 15.6305 20.0975C15.996 20.7169 17.2602 22.7772 19.1178 24.4311C21.5172 26.5688 23.4629 27.2513 24.1595 27.5416C24.6777 27.7567 25.2969 27.7066 25.6753 27.3023C26.1548 26.784 26.7503 25.924 27.3566 25.0767C27.7844 24.4702 28.3284 24.3945 28.8982 24.6095C29.283 24.7429 34.1742 27.0144 34.3806 27.3779C34.5333 27.6424 34.5333 28.8936 34.0152 30.3604ZM21.5043 0H21.4935C9.64059 0 0 9.6435 0 21.5C0 26.2013 1.51577 30.563 4.09362 34.1008L1.41471 42.0898L9.67717 39.4496C13.0763 41.6992 17.1333 43 21.5043 43C33.3573 43 43 33.3565 43 21.5C43 9.6435 33.3573 0 21.5043 0Z" fill="white"/>
</g>
<defs>
<clipPath id="clip0_40_20">
<rect width="43" height="43" fill="white"/>
</clipPath>
</defs>
</svg>
