<svg width="100" height="100" viewBox="0 0 100 100" fill="none" xmlns="http://www.w3.org/2000/svg">
<path d="M41.6667 35.4166L43.7501 27.0833L45.8334 35.4166L52.0834 37.4999L45.8334 39.5833L43.7501 47.9166L41.6667 39.5833L35.4167 37.4999L41.6667 35.4166Z" fill="white"/>
<path d="M62.4999 26.0416L67.7083 8.33325L72.9166 26.0416L83.3332 31.2499L72.9166 36.4583L67.7083 52.0833L62.4999 36.4583L52.0833 31.2499L62.4999 26.0416Z" fill="white"/>
<path fill-rule="evenodd" clip-rule="evenodd" d="M25 54.1666H12.5V82.2916H25V77.4174C27.0225 77.3478 29.1283 77.2932 30.0246 77.3287C34.3108 77.498 37.5115 78.4964 40.7477 79.5057C43.7669 80.4474 46.8171 81.3989 50.8081 81.6955C51.8112 81.7701 52.7875 81.8664 53.734 81.9597C57.1515 82.2968 60.1804 82.5955 62.6846 81.6955C65.8821 80.5464 84.1533 71.8126 86.4373 69.5143C88.7212 67.216 87.5792 61.0105 80.4992 62.1597C77.0054 62.7268 72.9558 64.357 69.2831 65.8355C65.5125 67.3534 62.1392 68.7114 60.1723 68.5949C56.2896 68.3651 46.0119 66.5266 46.0119 66.5266L57.8125 66.6666C57.8125 66.6666 59.4796 66.7534 61.771 65.1476C64.0625 63.5416 66.1104 58.942 62.6846 58.942C59.2587 58.942 55.6044 57.7928 55.6044 57.7928L40.9873 54.5751C40.9873 54.5751 35.9627 53.6557 33.9073 54.5751C32.6031 55.1584 28.1102 56.7595 25 57.852V54.1666Z" fill="white"/>
<g clip-path="url(#clip0_23_79)">
<path d="M13.6687 22.385H18.763C20.3351 22.385 20.7322 23.4697 20.7322 24.874C20.7322 25.5262 20.6386 26.259 20.545 26.9692C20.3932 28.1443 20.2512 29.2484 20.574 29.6487C21.1132 30.3202 21.8912 31.0982 22.7241 31.9311C24.787 33.9972 27.1695 36.3829 27.347 38.5201C27.4536 39.8275 27.4761 41.5127 27.2405 43.0688C27.0597 44.2697 26.7207 45.4028 26.1493 46.2486C25.8555 46.6812 25.5133 47.0686 25.0743 47.3656C24.632 47.6626 24.0993 47.866 23.4311 47.9274C23.4214 47.9274 23.4085 47.9274 23.3988 47.9274H14.7921C14.776 47.9274 14.7599 47.9274 14.7469 47.9241C13.8301 47.8725 13.0037 47.6626 12.3096 47.2365C11.5961 46.7975 11.0344 46.1357 10.6631 45.1898C10.6534 45.1639 10.647 45.1381 10.6438 45.1123C9.86251 41.2803 9.54291 37.4612 9.91739 33.697C10.2919 29.9166 11.3637 26.1912 13.3652 22.569C13.4233 22.4528 13.546 22.3882 13.6687 22.385ZM10.4888 35.6533C16.3482 37.0447 19.5119 32.5509 24.787 35.1368C24.0089 34.2168 23.0889 33.2935 22.2302 32.4315C21.3843 31.5857 20.5934 30.7915 20.0284 30.0942C19.5151 29.4582 19.6766 28.2089 19.8477 26.882C19.9348 26.2041 20.0252 25.5036 20.0252 24.8773C20.0252 23.8765 19.7702 23.0985 18.763 23.0985H13.8785C11.9932 26.5754 10.9763 30.1459 10.6179 33.768C10.5534 34.3943 10.5114 35.0238 10.4888 35.6533ZM23.8443 10.5145L23.8056 15.0019C23.8056 15.1633 23.6958 15.2989 23.5473 15.3376C22.4658 15.6443 21.5135 16.0575 20.7839 16.7C20.0736 17.3263 19.5636 18.185 19.3344 19.3988V20.9323C19.3344 21.1292 19.1762 21.2874 18.9792 21.2874H13.8366C13.5299 21.3164 13.2845 21.2454 13.094 21.055C12.9197 20.8774 12.8261 20.6062 12.8229 20.2253C12.8229 20.2124 12.8229 20.1994 12.8229 20.1898C12.9391 18.9307 12.6808 17.9913 12.0868 17.2585C11.4767 16.5095 10.4953 15.951 9.1878 15.4764C9.00378 15.4086 8.91016 15.2085 8.97473 15.0245V15.0212C9.68173 13.1488 10.7729 11.9544 12.1385 11.2118C13.4879 10.479 15.0956 10.2014 16.8583 10.153C17.9591 10.1239 19.0664 10.1013 20.1769 10.0981C21.2875 10.0949 22.3948 10.1078 23.4989 10.1497C23.699 10.153 23.8508 10.3176 23.8443 10.5145ZM23.1018 14.7339L23.1341 10.8438C22.1462 10.8115 21.1616 10.8019 20.1802 10.8051C19.0826 10.8083 17.9817 10.8309 16.8776 10.86C15.2183 10.9052 13.7171 11.1634 12.4774 11.8349C11.3346 12.4547 10.4081 13.4362 9.76889 14.9438C11.0279 15.4345 11.99 16.0253 12.6356 16.8162C13.3491 17.6911 13.659 18.7887 13.5299 20.2382C13.5331 20.4157 13.5589 20.5223 13.6009 20.5675C13.6235 20.5901 13.6816 20.5965 13.7688 20.5901C13.7881 20.5868 13.8075 20.5836 13.8269 20.5836H18.6274V19.3795C18.6274 19.3601 18.6306 19.3375 18.6338 19.3181C18.8921 17.9106 19.4829 16.913 20.3158 16.177C21.0809 15.499 22.03 15.0568 23.1018 14.7339ZM24.5674 10.4112L24.5965 14.7242H26.7046C27.0016 14.7339 27.1533 14.4853 27.0823 13.8429V11.1376C27.0758 10.9019 26.979 10.747 26.7982 10.6663L24.5674 10.4112ZM31.589 11.8123C32.1992 11.8123 32.6931 12.2288 32.6931 12.7453C32.6931 13.2618 32.1992 13.6783 31.589 13.6783C30.9789 13.6783 30.4849 13.2618 30.4849 12.7453C30.4849 12.2288 30.9789 11.8123 31.589 11.8123ZM37.8745 11.7187C38.4847 11.7187 38.9786 12.1351 38.9786 12.6517C38.9786 13.1682 38.4847 13.5847 37.8745 13.5847C37.2644 13.5847 36.7704 13.1682 36.7704 12.6517C36.7704 12.1351 37.2644 11.7187 37.8745 11.7187ZM37.7518 15.2343C38.362 15.2343 38.8559 15.6508 38.8559 16.1673C38.8559 16.6838 38.362 17.1003 37.7518 17.1003C37.1417 17.1003 36.6478 16.6838 36.6478 16.1673C36.6478 15.6508 37.1417 15.2343 37.7518 15.2343ZM34.7011 13.5847C35.3112 13.5847 35.8052 14.0011 35.8052 14.5176C35.8052 15.0342 35.3112 15.4506 34.7011 15.4506C34.0909 15.4506 33.597 15.0342 33.597 14.5176C33.597 14.0043 34.0909 13.5847 34.7011 13.5847ZM37.8745 8.2644C38.4847 8.2644 38.9786 8.68086 38.9786 9.19738C38.9786 9.71391 38.4847 10.1304 37.8745 10.1304C37.2644 10.1304 36.7704 9.71391 36.7704 9.19738C36.7704 8.68086 37.2644 8.2644 37.8745 8.2644ZM34.7334 10.0367C35.3435 10.0367 35.8375 10.4532 35.8375 10.9697C35.8375 11.4863 35.3435 11.9027 34.7334 11.9027C34.1232 11.9027 33.6293 11.4863 33.6293 10.9697C33.6261 10.4564 34.1232 10.0367 34.7334 10.0367ZM20.8646 19.7733C21.2391 18.2722 22.1365 17.2843 23.6474 16.9001C23.9863 19.3149 24.7224 21.2551 25.749 22.8337C26.3753 23.7183 25.3584 24.6319 24.6256 23.6989L22.2495 19.8121L20.8646 19.7733Z" fill="white"/>
</g>
<defs>
<clipPath id="clip0_23_79">
<rect width="39.6694" height="39.6694" fill="white" transform="translate(4.13232 8.2644)"/>
</clipPath>
</defs>
</svg>
