<svg width="114" height="114" viewBox="0 0 114 114" fill="none" xmlns="http://www.w3.org/2000/svg">
<g clip-path="url(#clip0_30_104)">
<path d="M3.2934 35.6066C2.8017 31.5988 3.61811 28.1755 5.30658 25.4201C6.53119 23.4069 8.21039 21.7741 10.1772 20.5402C12.1162 19.3249 14.3242 18.4992 16.6435 18.1096C20.3173 17.488 24.3066 17.9333 27.9062 19.5661C29.1865 17.1169 31.0048 15.0295 33.3613 13.4709C36.0795 11.6804 39.4843 10.6227 43.5756 10.6227C48.0102 10.6227 52.2036 12.506 55.2744 15.5397C57.5473 17.7941 59.1987 20.6887 59.8666 23.9172C62.5107 22.5441 64.9785 21.9133 67.205 21.9225C69.0327 21.9225 70.7026 22.3586 72.1684 23.1472C73.6249 23.945 74.8681 25.0861 75.8608 26.5427C77.5307 28.9733 78.4955 32.2853 78.6069 36.1725C79.08 36.8591 79.3583 37.6847 79.4326 38.6496C79.4604 39.03 79.4511 39.4196 79.4233 39.8278C79.4047 39.967 79.3862 40.1061 79.3491 40.2267L72.6415 69.5895C70.2016 71.6584 67.6318 73.4582 64.9785 75.0539L75.4247 39.3639C75.4433 39.197 75.4433 39.0392 75.4247 38.9186C75.4062 38.7424 75.3876 38.6032 75.3412 38.5197C75.267 38.4641 75.2021 38.3898 75.1371 38.3156C74.9887 38.2507 74.7661 38.2043 74.4785 38.1765C74.2372 38.1579 73.9682 38.1579 73.6806 38.1672C73.5971 38.1764 73.5229 38.1857 73.4394 38.1857H6.47553C6.38275 38.2043 6.32709 38.2321 6.30854 38.2599C6.14154 38.631 6.12299 39.2712 6.19721 40.069L16.4765 84.2385C18.4433 85.1291 17.4321 84.8508 19.6122 84.9992C23.954 85.2961 28.5834 84.2292 32.9716 82.0397C42.685 77.1784 51.1459 66.862 52.7231 53.5212C50.8305 52.6027 49.5317 50.673 49.5317 48.4279C49.5502 45.32 52.0737 42.778 55.2001 42.778C58.3266 42.778 60.8593 45.3107 60.8593 48.4372C60.8593 51.0349 59.1059 53.2243 56.7216 53.883C55.0053 68.7082 45.5888 80.2028 34.7807 85.6115C29.7524 88.1257 24.3994 89.341 19.3618 88.9885C17.6918 88.8679 19.1855 89.3688 17.6083 88.905C20.0483 98.0803 22.1079 98.0432 29.6318 97.904C31.0327 97.8854 32.5727 97.8483 33.6396 97.8483H34.0942C34.1591 97.9689 34.2148 98.0895 34.2797 98.2101C34.9848 99.5275 36.0888 100.743 37.4433 101.856H33.6396C31.7934 101.856 30.6894 101.875 29.6874 101.893C18.9999 102.097 16.6342 102.134 13.183 87.6711V87.6618H13.1738L13.0068 86.9382C11.4482 86.0383 9.97309 84.9157 8.60932 83.5612C1.039 76.0187 -2.76471 61.2028 2.31928 37.0817C2.42133 36.5807 2.70893 36.154 3.0893 35.8757C3.15424 35.7736 3.21918 35.6901 3.2934 35.6066ZM11.5966 80.8986L4.35102 49.801C2.82953 65.3869 5.99311 75.3229 11.4204 80.7409C11.4853 80.7966 11.541 80.8522 11.5966 80.8986ZM74.4413 34.1501C74.1445 31.9885 73.5043 30.1701 72.5488 28.7785C71.9086 27.8508 71.1386 27.1271 70.248 26.6447C69.3666 26.1623 68.3369 25.9118 67.1865 25.9118C64.9785 25.9118 62.3159 26.8395 59.3007 28.9084C58.976 29.131 58.5771 29.2609 58.1503 29.2609C57.0556 29.2424 56.1743 28.3517 56.1743 27.257C56.165 27.2014 56.165 27.155 56.165 27.0993C56.165 23.7038 54.7177 20.6144 52.4448 18.3693C50.1161 16.0593 46.9247 14.6213 43.5756 14.6213C40.3007 14.6213 37.6288 15.4284 35.5507 16.7922C33.3056 18.2673 31.7099 20.4382 30.7451 22.9894C30.6987 23.1193 30.643 23.2399 30.5688 23.3513C29.9936 24.2975 28.7597 24.5944 27.8227 24.01C24.5942 22.0339 20.7905 21.4308 17.3115 22.0339C15.5024 22.34 13.7954 22.9709 12.311 23.8986C10.8637 24.8171 9.62055 26.0139 8.72064 27.4797C7.61664 29.2888 7.03217 31.5246 7.18988 34.1594H73.4301C73.7734 34.1501 74.1074 34.1408 74.4413 34.1501ZM83.1899 58.3361C83.895 57.5939 84.8876 57.1486 86.205 57.0373L97.5512 58.6608C100.019 59.0134 102.422 59.7648 102.589 62.8078C102.644 63.8376 102.403 65.0158 102.246 66.5002L102.162 67.3073C101.837 70.2946 101.002 69.9513 98.5532 71.1481C104.676 81.1862 111.736 91.7995 113.916 103.702C114.399 106.152 112.831 107.757 109.723 108.74L104.166 109.779C104.713 103.313 103.006 96.5124 99.3788 89.4338C100.372 97.5051 101.364 105.372 100.047 110.02L94.332 111.096C93.5063 108.489 92.829 106.476 91.6601 105.641L90.3334 110.633L80.7128 110.159C84.1733 104.871 86.2978 99.1657 86.8637 92.9592C83.8486 99.6574 80.4995 104.621 76.7421 107.59C74.9794 109.399 73.4394 109.77 72.122 108.61C71.185 107.784 71.3334 107.274 71.5283 106.068C71.7787 104.509 72.4003 102.904 73.2631 101.299C71.3242 103.48 70.0995 104.008 69.0048 105.168C65.9155 108.48 60.5717 107.97 59.7182 103.378C59.1708 100.437 61.1284 99.4904 63.1137 97.4123L66.5649 93.8034C62.6962 96.2248 58.8183 98.5441 54.9125 100.001C50.4223 101.68 50.4037 101.504 46.2846 99.3698C40.7368 96.5031 36.6083 93.2282 44.3271 91.2521C58.54 86.5764 72.4003 81.0749 83.3198 68.6896C82.1694 67.9938 81.5385 67.0939 81.3437 66.0363C81.0375 64.4592 82.0766 59.5051 83.1899 58.3361ZM98.5903 7.27362L90.1664 49.9494C89.3871 57.093 97.6996 57.7424 99.017 50.7194L107.255 7.9787C107.06 2.02265 100.316 0.714541 98.5903 7.27362Z" fill="white"/>
</g>
<defs>
<clipPath id="clip0_30_104">
<rect width="114" height="114" fill="white"/>
</clipPath>
</defs>
</svg>
